# xmcd CD database file
#
# Track frame offsets:
#	150
#	14571
#	28645
#	51503
#	70988
#	88873
#	104374
#	123972
#	140074
#	163326
#	180036
#	205637
#
# Disc length: 2999 seconds
#
# Revision: 0
# Processed by: cddbd v1.5.2PL0 Copyright (c) Steve Scherf et al.
# Submitted via: CDex 1.79
#
DISCID=a80bb50c
DTITLE=Hazzard - Choices
DYEAR=2007
DGENRE=Country
TTITLE0=Christmas In Huntsville
TTITLE1=At It Again
TTITLE2=If You Were A Bottle
TTITLE3=She Don`t Ask Questions
TTITLE4=Choices
TTITLE5=Inside These Walls
TTITLE6=The Bottle Took The Man
TTITLE7=We Had A Time
TTITLE8=Stillwater Runs Deep
TTITLE9=The Man Or The Taliban
TTITLE10=Losin` 
TTITLE11=I Don`t Blame My Woman
EXTD=YEAR: 2007
EXTT0=
EXTT1=
EXTT2=
EXTT3=
EXTT4=
EXTT5=
EXTT6=
EXTT7=
EXTT8=
EXTT9=
EXTT10=
EXTT11=
PLAYORDER=
